<?xml version="1.0" encoding="UTF-8"?>
<svg id="Layer_2" data-name="Layer 2" xmlns="http://www.w3.org/2000/svg" viewBox="0 0 55.58 39.37">
  <defs>
    <style>
      .cls-1 {
        fill: #fdfefe;
      }
    </style>
  </defs>
  <g id="Layer_1-2" data-name="Layer 1">
    <g>
      <path class="cls-1" d="m40.21,0c.12.2.32.33.48.48.46.42.93.83,1.43,1.2.11.08.15.17.15.3,0,2.63,0,5.26,0,7.89,0,.3-.04.26.26.25,1.67-.03,3.35-.08,5.02-.15,1.06-.05,2.13-.09,3.19-.14,1.42-.08,2.84-.15,4.26-.26.19-.01.39-.05.59-.01v.53c-.05.04-.11.04-.17.04-2.2.07-4.4.14-6.6.2-2.11.06-4.23.11-6.34.17-.02,0-.04,0-.06,0-.09-.01-.14.03-.13.13,0,.07,0,.14,0,.2,0,5.46,0,10.93,0,16.39,0,.17,0,.34-.03.51-.03.14-.06.17-.2.17-.58.02-1.15.02-1.73.02-.09,0-.13-.04-.15-.13-.04-.22-.05-.44-.05-.67,0-2.95,0-5.9,0-8.85,0-2.49.01-4.99.02-7.48,0-.27.04-.25-.25-.24-3.94.08-7.89.1-11.83.06-2-.02-4-.07-6-.15-1.29-.05-2.57-.11-3.86-.18-1.09-.06-2.18-.14-3.26-.23-1.32-.11-2.65-.23-3.96-.38-1.58-.18-3.16-.39-4.72-.68-.97-.18-1.89-.49-2.74-.98-1.46-.84-2.47-2.07-3.11-3.61-.15-.36-.27-.74-.39-1.11-.01-.04-.03-.08-.01-.14.06.02.12.04.17.07,2.6,1.18,5.24,2.26,7.92,3.23,1.87.68,3.76,1.31,5.68,1.83.85.23,1.71.37,2.57.52,1.34.23,2.69.41,4.04.56,1.04.12,2.07.22,3.11.3,1.33.11,2.66.2,3.99.28,4.16.23,8.32.28,12.48.24.04,0,.08,0,.12,0,.06,0,.1-.04.1-.1,0-.05,0-.09,0-.14,0-.92.02-1.83,0-2.75-.05-2.31,0-4.62-.02-6.93,0-.08,0-.16,0-.24h.04Z"/>
      <path class="cls-1" d="m36.03,14.64c.26.2.47.38.69.55.43.34.86.69,1.29,1.03.07.06.1.12.1.2,0,1.29,0,2.58-.02,3.87-.02.87,0,1.73,0,2.6-.02,1.71,0,3.43-.03,5.14-.02.89,0,1.77-.02,2.66,0,.05,0,.09,0,.14,0,.08.03.1.11.11.18.01.36.02.55.02.37,0,.73,0,1.1,0,.29,0,.58-.04.87-.03.06,0,.12-.02.18-.04.37-.12.74-.24,1.12-.36.05-.02.1-.04.16-.04.09,0,.14.05.15.13,0,.05,0,.11,0,.16,0,1.34.01,2.69,0,4.03-.02,1.2-.02,2.41-.02,3.61,0,.21,0,.21-.21.21-.59,0-1.18,0-1.77,0-.14,0-.14,0-.14-.14,0-.81,0-1.62,0-2.42,0-1.57,0-3.14,0-4.71,0-.24.03-.22-.23-.22-.54,0-1.07,0-1.61,0-.2,0-.2,0-.2.2,0,1.63,0,3.26,0,4.89,0,.7,0,1.4,0,2.11,0,.03,0,.07,0,.1-.01.2-.06.24-.26.24-.49,0-.98,0-1.46,0-.21,0-.24-.03-.27-.23-.02-.15-.02-.3-.02-.46,0-2.19,0-4.37,0-6.56,0-.04,0-.08,0-.12,0-.15,0-.15-.16-.15-.96,0-1.92.01-2.89,0-1.14,0-2.28-.03-3.41-.13-.65-.05-1.31-.11-1.95-.27-1.06-.27-1.73-.95-2.04-1.97,0-.02-.02-.05,0-.09.07.03.14.06.21.09,1.52.66,3.06,1.25,4.66,1.7.79.22,1.59.3,2.41.35.97.06,1.95.07,2.93.07.05,0,.09,0,.14,0,.06,0,.09-.02.09-.08,0-.06,0-.12,0-.18,0-5.24,0-10.48,0-15.71,0-.09,0-.18,0-.32Z"/>
      <path class="cls-1" d="m50.1,34.48c0,1.29,0,2.59,0,3.88,0,.05,0,.11,0,.16,0,.1-.06.13-.13.15-.06.01-.12,0-.18,0-.41,0-.83,0-1.24,0-.07,0-.15,0-.22-.03-.15-.06-.18-.09-.19-.25-.01-.16-.01-.16-.15-.16-.71,0-1.42,0-2.13,0-.08,0-.11.03-.1.1,0,.03,0,.07,0,.1,0,.16-.05.21-.21.21-.47,0-.93,0-1.4,0-.22,0-.25-.04-.25-.27,0-1.2,0-2.4-.01-3.6,0-1.41,0-2.82-.01-4.23,0-.26.04-.34.34-.24.41.14.82.27,1.23.4.22.07.3.2.3.44,0,1.29,0,2.58,0,3.86,0,.92,0,1.84,0,2.76,0,.05,0,.1,0,.14,0,.09.02.13.12.13.19,0,.38,0,.57,0,.5,0,1,0,1.5,0,.22,0,.19,0,.19-.2,0-1.98,0-3.96,0-5.94,0-.28,0-.57,0-.85,0-.22.02-.23.22-.3.49-.16.99-.27,1.48-.45.18-.06.26,0,.26.21,0,1.32,0,2.64,0,3.96Z"/>
      <path class="cls-1" d="m50.17,17.45c-.08.07-.07.17-.07.27,0,1.34,0,2.67,0,4.01,0,.62,0,1.23,0,1.85,0,.05,0,.11,0,.16,0,.07-.05.11-.12.11-.03,0-.05,0-.08,0-.45,0-.89,0-1.34.01-.19,0-.19,0-.22-.19q-.04-.24-.29-.24c-.71,0-1.42,0-2.13,0-.17,0-.17,0-.17.16,0,.21,0,.2-.21.25-.13.03-.26.01-.38.02-.35.02-.69.01-1.04,0-.26,0-.27-.02-.27-.28,0-2.3,0-4.61,0-6.91,0-.32,0-.64,0-.96,0-.21.05-.24.24-.19.47.13.94.25,1.41.38.18.05.25.14.25.33,0,2.25,0,4.5,0,6.75,0,.28-.04.25.25.25.7,0,1.4,0,2.09,0,.26,0,.23.04.23-.24,0-1.48,0-2.96-.01-4.43,0-.79,0-1.59,0-2.38,0-.23,0-.25.23-.31.45-.12.9-.24,1.36-.35.18-.04.22,0,.22.18,0,.54,0,1.07,0,1.61,0,.05-.05.15.07.15h0Z"/>
      <path class="cls-1" d="m34.5,3.37c.19.12.19.27.19.42,0,.98,0,1.95,0,2.93,0,.04,0,.08,0,.12-.01.12-.05.17-.18.18-.13,0-.26,0-.39,0-.1,0-.16-.06-.17-.17,0-.04,0-.08,0-.12,0-1.29,0-2.59,0-3.88,0-.03,0-.07,0-.1,0-.08.03-.11.11-.1.14,0,.27,0,.41,0,.35,0,.7,0,1.06,0,.38,0,.62.24.62.62,0,1.17,0,2.35,0,3.52,0,.2-.04.24-.24.24-.1,0-.2,0-.3,0-.14,0-.18-.05-.19-.19,0-.05,0-.09,0-.14,0-1,0-1.99,0-2.99,0-.05,0-.11,0-.16-.01-.11-.05-.16-.16-.16-.23,0-.46,0-.75,0Z"/>
      <path class="cls-1" d="m21.11,4.84c0-.65,0-1.3,0-1.95,0-.07-.01-.15.05-.21.07-.06.56-.06.63,0,.04.03.05.08.05.13,0,.07,0,.15,0,.22,0,.99,0,1.98,0,2.97,0,.03,0,.07,0,.1q0,.17.18.18c.09,0,.19,0,.28,0,.23,0,.26-.03.26-.25,0-.27,0-.54,0-.81,0-.75,0-1.5,0-2.26,0-.05,0-.11,0-.16,0-.1.06-.15.16-.15.14,0,.27,0,.41,0,.11,0,.15.05.17.16,0,.04,0,.08,0,.12,0,1.13,0,2.26,0,3.39,0,.08,0,.16-.02.24-.06.25-.27.44-.54.45-.51,0-1.02,0-1.52,0-.13,0-.11-.08-.11-.16,0-.6,0-1.21,0-1.81,0-.07,0-.14,0-.2Z"/>
      <path class="cls-1" d="m31.88,3.37c.13.12.12.27.12.42,0,.27,0,.54,0,.81,0,.17.04.21.22.22.22,0,.43,0,.65,0,.19,0,.22.04.23.23,0,.09,0,.19,0,.28,0,.17-.05.22-.22.22-.21,0-.42,0-.63,0-.22,0-.25.03-.25.24,0,.09,0,.18,0,.26,0,.17.04.22.22.22.3,0,.61,0,.91,0,.32,0,.33,0,.33.33,0,.07,0,.14,0,.2,0,.14-.05.19-.2.2-.22,0-.43,0-.65,0-.36,0-.72,0-1.08,0-.23,0-.26-.03-.26-.25,0-1.29,0-2.59,0-3.88,0-.22.03-.25.25-.25.57,0,1.14,0,1.71,0,.2,0,.23.04.24.24,0,.09,0,.19,0,.28,0,.16-.05.21-.21.21-.24,0-.47,0-.71,0-.22,0-.44,0-.66,0Z"/>
      <path class="cls-1" d="m48.71,29.6c-.1-.02-.08-.1-.09-.16-.05-.3-.11-.6-.22-.88-.05-.13-.11-.26-.18-.39-.21-.36-.52-.58-.94-.63-.28-.03-.57-.05-.85-.05-.17,0-.34,0-.51-.02-.17-.02-.25-.08-.27-.25-.04-.36-.05-.73,0-1.09.02-.14.1-.2.28-.21.37-.01.73,0,1.09.05.09.02.19.02.28.04.37.08.64.3.85.61.23.36.35.76.43,1.17.11.58.12,1.17.14,1.75,0,.02-.01.04-.02.06Z"/>
      <path class="cls-1" d="m50.18,17.45c.02-.07.08-.11.13-.15.28-.29.56-.58.84-.88.13-.14.25-.29.33-.46.12-.24.1-.4-.09-.59-.22-.23-.45-.45-.67-.68-.04-.04-.1-.07-.05-.15.24-.4.48-.8.71-1.19.08,0,.1.06.14.1.26.29.5.59.72.9.07.11.13.22.21.32.23.31.19.61,0,.93-.13.23-.3.42-.49.59-.54.47-1.14.85-1.73,1.25-.02.01-.04,0-.06.01,0,0,0,0,0,0Z"/>
      <path class="cls-1" d="m49.56,11.56c.05.05.03.1.03.14,0,.35,0,.7,0,1.06,0,.34-.19.48-.52.39-.21-.05-.42-.1-.64-.13-.78-.08-1.57-.06-2.35-.02-.4.02-.8.06-1.19.12-.08.01-.16.01-.24-.02-.05-.02-.1-.05-.1-.11,0-.06.04-.1.09-.13.1-.05.2-.07.31-.09.21-.03.42-.06.62-.08.87-.12,1.74-.25,2.58-.53.48-.16.95-.36,1.4-.61Z"/>
      <path class="cls-1" d="m30.82,4.82c0,.64,0,1.29,0,1.93,0,.24-.03.27-.27.27-.09,0-.19,0-.28,0-.12,0-.17-.05-.18-.18,0-.05,0-.09,0-.14,0-1.25,0-2.49,0-3.74,0-.05,0-.11,0-.16,0-.1.06-.15.15-.15.14,0,.27,0,.41,0,.11,0,.16.05.17.16,0,.05,0,.09,0,.14,0,.62,0,1.25,0,1.87Z"/>
      <path class="cls-1" d="m24.8,2.51c-.15-.2-.17-.36-.06-.52.06-.1.15-.18.21-.27.07-.1.05-.14-.07-.16-.09-.01-.17.01-.23.09-.02.02-.03.04-.05.07-.03.04-.04.13-.13.09-.08-.04-.07-.1-.06-.17.08-.31.34-.46.63-.35.23.08.32.29.22.52-.06.14-.16.25-.28.34-.11.09-.2.18-.19.38Z"/>
      <path class="cls-1" d="m34.62,2.43c-.07-.02-.15-.03-.22-.05-.1-.03-.2-.06-.29-.1-.21-.1-.4-.09-.57.1-.03.03-.07.06-.11.09-.04.03-.08.01-.11-.02-.03-.04-.03-.08,0-.11.13-.1.24-.22.38-.31.07-.04.14-.03.22,0,.13.05.27.09.4.14.24.1.46.11.63-.13.04-.06.1-.1.17-.03.06.06.07.13,0,.19-.14.12-.28.24-.5.24Z"/>
      <path class="cls-1" d="m32.39,2.45c-.17,0-.34,0-.51,0-.05,0-.09,0-.14,0-.05,0-.09-.03-.1-.08,0-.05.04-.07.08-.08.1-.03.2-.05.29-.09.25-.12.49-.12.74,0,.09.04.19.06.29.09.05.01.09.03.09.09,0,.05-.05.08-.1.07-.14,0-.27,0-.4-.01-.07,0-.15,0-.22,0h0Z"/>
      <path class="cls-1" d="m34.29,14.41c-.05-.25-.21-.38-.45-.44-.12-.03-.24-.01-.36,0-1.4.19-2.8.3-4.21.33-2.12.04-4.24-.09-6.34-.39-1.58-.23-3.14-.54-4.67-.97-.52-.15-1.04-.31-1.54-.53-.18-.08-.19-.09-.32.07-.41.51-.54,1.08-.38,1.72.07.27.2.52.4.72.05.05.1.09.17.09.09,0,.19,0,.28-.02.5-.05,1-.1,1.51-.15.62-.06,1.25-.12,1.87-.17.29-.03.58-.06.86-.09.14-.01.18.02.19.17,0,.12,0,.24,0,.37,0,3.78-.02,7.56-.03,11.35,0,.16,0,.33,0,.49,0,.08-.03.11-.11.11-.05,0-.09,0-.14,0-.74,0-1.48-.01-2.22-.02-.79,0-1.59.02-2.38.05-.17,0-.16,0-.18.17-.06.61.23,1.05.7,1.4.06.05.11.03.17,0,.18-.08.35-.17.54-.24,1.11-.43,2.28-.64,3.46-.77.15-.02.16-.01.16.14,0,.03,0,.07,0,.1,0,3.6-.01,7.2-.02,10.8,0,.22.01.45-.02.67h.08c0-.06.03-.09.06-.12.58-.71,1.16-1.41,1.74-2.12.07-.09.1-.18.1-.29.02-2.95.05-5.9.08-8.84,0-.13-.06-.3.02-.4.09-.1.27-.06.41-.07,1.33-.11,2.66-.18,4-.17,1,0,2,.07,3,.2.71.09,1.42.23,2.12.39.3.07.6.12.91.07.29-.05.45-.21.51-.5.03-.17.03-.34.03-.51.01-2.32.02-4.65.03-6.97,0-1.7.01-3.4.02-5.1,0-.18,0-.35-.04-.53Zm-1.99,5.39c-.01,1.74-.02,3.47-.03,5.21,0,.59,0,1.18-.01,1.77,0,.29-.16.43-.45.41-1.31-.1-2.62-.16-3.94-.15-1.46.01-2.91.01-4.37.02-.03,0-.07,0-.1,0-.07,0-.1-.02-.1-.09,0-.03,0-.05,0-.08,0-.73,0-1.45.01-2.18.02-1.31.03-2.62.02-3.87.04-.66.03-1.27.03-1.88,0-1.42.01-2.85.02-4.27,0-.17,0-.18.16-.17.47.03.94.03,1.41.08.02,0,.04,0,.06,0,1.22.03,2.44.03,3.66.02.3,0,.61,0,.91-.02.64-.04,1.28-.06,1.92-.08.12,0,.24-.03.36-.03.31,0,.45.14.45.44-.01,1.63-.02,3.25-.03,4.88Z"/>
      <path class="cls-1" d="m26.23,2.35c-.09,0-.18,0-.26,0-.13,0-.18.06-.18.2,0,.09,0,.17,0,.27-.3-.16-.3-.17-.67-.17-.23,0-.46,0-.69,0-.46.02-.67.23-.67.69,0,.89,0,1.78,0,2.66,0,.14,0,.28,0,.43.02.32.24.55.56.56.35.02.7.02,1.06,0,.29-.02.52-.24.55-.53,0-.07,0-.15,0-.22,0-.9,0-1.8,0-2.7,0-.05,0-.09,0-.14,0-.06.01-.1.09-.11.1,0,.14-.08.17-.16.07-.19.13-.37.19-.56.04-.12,0-.2-.14-.21Zm-1.03,3.54c0,.32-.25.47-.54.34-.11-.05-.17-.14-.17-.25,0-.06,0-.12,0-.18,0-.68,0-1.35,0-2.03,0-.14,0-.27-.12-.39.17,0,.34,0,.51,0,.23,0,.33.11.33.34,0,.32,0,.65,0,.97,0,.4,0,.8,0,1.2Z"/>
      <path class="cls-1" d="m29.64,4.55c0-.43,0-.87,0-1.3,0-.37-.24-.61-.61-.61-.47,0-.95,0-1.42,0-.15,0-.16,0-.16.15,0,.68,0,1.36,0,2.03s0,1.33,0,1.99c0,.2-.02.2.19.2.44,0,.88-.01,1.32,0,.44.02.69-.32.68-.68-.02-.6,0-1.19,0-1.79Zm-.74,1.48c-.02.12-.09.21-.22.24-.12.02-.24.02-.36,0-.08,0-.13-.07-.13-.15,0-.05,0-.11,0-.16,0-.72,0-1.44,0-2.15q0-.25-.13-.44c.2,0,.38,0,.57,0,.16,0,.26.11.28.27,0,.05,0,.09,0,.14,0,.7,0,1.4,0,2.09,0,.05,0,.11,0,.16Z"/>
    </g>
  </g>
</svg>